PathFileType	4	(X/Y/Z)	Patient4_TMGait_0pt3_03_right_18.trc.trc
DataRate	CameraRate	NumFrames	NumMarkers	Units	OrigDataRate	OrigDataStartFrame	OrigNumFrames
56.910569105691	56.910569105691	4	33	mm	56.910569105691	124	       141
Frame#	Time	Sacral			L.Shoulder			Chest			R.Shoulder			Neck			R.ASIS			L.ASIS			R.Thigh.Superior			R.Thigh.Lateral			R.Thigh.Inferior			R.Patella			L.Thigh.Superior			L.Thigh.Lateral			L.Thigh.Inferior			L.Patella			L.Shank.Superior			L.Shank.Lateral			L.Shank.Inferior			R.Shank.Superior			R.Shank.Lateral			R.Shank.Inferior			R.Heel			R.Midfoot.Superior			R.Midfoot.Lateral			R.Toe			L.Heel			L.Midfoot.Lateral			L.Midfoot.Superior			L.Toe			L.Elbow			L.Wrist			R.Elbow			R.Wrist			
		X1	Y1	Z1	X2	Y2	Z2	X3	Y3	Z3	X4	Y4	Z4	X5	Y5	Z5	X6	Y6	Z6	X7	Y7	Z7	X8	Y8	Z8	X9	Y9	Z9	X10	Y10	Z10	X11	Y11	Z11	X12	Y12	Z12	X13	Y13	Z13	X14	Y14	Z14	X15	Y15	Z15	X16	Y16	Z16	X17	Y17	Z17	X18	Y18	Z18	X19	Y19	Z19	X20	Y20	Z20	X21	Y21	Z21	X22	Y22	Z22	X23	Y23	Z23	X24	Y24	Z24	X25	Y25	Z25	X26	Y26	Z26	X27	Y27	Z27	X28	Y28	Z28	X29	Y29	Z29	X30	Y30	Z30	X31	Y31	Z31	X32	Y32	Z32	X33	Y33	Z33	

124	36.131285714286	700.088476723143	1004.513735115711	416.902867999099	919.298346995610	1428.899769180432	270.664695116077	986.272993124347	1359.701659602200	448.413555876589	871.932269720486	1435.512053795229	602.911969879566	866.601836017211	1490.346789562624	424.175170441895	904.745987268895	938.439750896698	574.687645643618	938.020855507486	952.626630474994	301.425439230682	970.018170222942	752.082807324772	552.893423567943	902.360718421078	635.542520560371	615.118708273143	992.888905532903	592.646870718474	541.699887446406	1010.577240830706	510.601160438998	555.550707110263	936.343804147098	723.050100090606	337.321704671598	832.463809273277	624.839817264317	259.361060692218	882.246496042586	534.998076420185	335.077476753059	865.308447223692	469.871986383867	344.646021509065	832.860536021817	403.036005908500	332.204450760958	737.703923813199	300.276928323757	268.085604496286	757.546035850129	185.478807783504	347.782476596829	993.849861503116	419.911939986275	567.460994620407	934.310287728490	309.921738803926	632.398800982516	998.966297293916	219.839564188520	581.215357196065	894.629070144694	39.668427356189	557.240577638917	1059.512403009712	107.401814104834	593.988316322094	979.785925697508	36.548569613203	629.882467998563	1182.859989520812	68.716147060316	618.036152997236	608.287150211341	38.817950049223	371.963156153331	690.938663260129	34.861371881360	300.977014122087	771.890476825614	94.786759378186	338.143466730439	902.089946018975	39.796286500960	323.289063909803	977.720348924249	1097.124530482108	125.576585602210	1232.356186936598	1061.284208093481	138.277562988715	717.151514160246	1119.677803998489	683.168200409414	697.227229345103	859.117038138654	699.673510093327	
125	36.148857142857	702.552869586669	1003.070583764841	420.401453584955	919.272392857606	1428.562043780008	275.193274798880	986.656229000658	1359.691253913747	452.912277895700	871.696615339985	1434.603291264373	607.490870403724	865.985806394055	1489.534887797264	428.780840788055	907.274901298063	937.453334369913	578.383756003694	940.812228960674	952.228700802949	305.274320310120	972.269427218777	750.401433171003	556.407760998545	903.032429142926	633.761532698641	616.989522093269	994.213017692476	591.119033017553	544.200630170127	1010.253407774253	508.606159158741	556.975582976498	937.665775753087	721.826647557827	339.891874094984	832.436419144780	624.610850712385	261.799658129285	881.562642721326	534.083020532299	336.967392262661	864.105927549683	468.775418709075	346.303274958713	830.824965124378	402.368537148205	333.622087778663	734.369588259774	300.904353314889	269.061696101526	753.361047941382	185.422979936805	348.066178185952	993.546686219821	417.836653750416	568.481647977711	933.449467592745	308.135516819983	632.945841009523	997.086027203195	217.916285611054	581.076537511158	890.681919648284	40.136572791358	556.471002494559	1056.580176288446	105.392503682231	593.632860551221	975.327075174676	36.485170577690	629.619621227885	1178.985228567603	64.587403617731	618.260977067960	603.034766596617	39.385185661327	371.817782621591	685.767362415627	35.102832502430	300.971133022577	766.853306552975	94.897283179077	338.066996318468	896.924153232700	39.605453373246	323.251490969714	980.210891168319	1097.137392454363	130.042249388153	1235.529714258684	1067.277886527968	142.772281699826	719.970770029827	1117.105858703269	686.958104698465	701.662773593307	856.365425539429	703.956865337352	
126	36.166428571429	705.187891924269	1001.916801248650	424.182914718637	919.257948200078	1428.578572842286	279.813132343900	987.087973924791	1360.047309995748	457.510150761374	871.454464869344	1433.983001014130	612.159330901246	865.359949006719	1489.041613979415	433.477313331219	910.158913643593	936.922290526697	582.240045223111	943.702789232875	952.175430904035	309.272676230387	975.031852185605	749.217384925296	559.633282925750	904.620779374769	632.511333766999	618.864551752167	996.059838549526	589.978233920951	546.376384853394	1010.652993047710	506.812842669975	558.246348761660	939.311047216699	720.895507225802	342.539519126797	832.780895738006	624.580089238000	264.475605684855	881.512399893705	533.367930789340	338.994909286281	863.637655713721	467.734563703774	348.063759937216	829.322697651364	401.822452445414	335.148169621796	731.360727551874	301.858264344920	270.176053911810	749.437118450283	185.573890779019	348.315119000493	993.557796914017	415.976849468687	569.339520517217	932.621959655722	306.778332557870	633.514864336158	994.670174449643	216.141800221543	580.795726081790	885.462668796897	40.759540278060	555.760365838811	1052.497878644763	103.480224401322	593.129837375072	969.667360786831	36.566427343849	629.367626663754	1174.046049270385	60.481136446671	618.376024684929	597.839509734639	40.364480962576	371.610953472305	680.660571271883	35.527374584753	300.943131214579	761.989343349019	95.076679616105	337.913136132219	891.801613383907	39.370033509092	323.194779867972	982.136110842536	1097.265040516203	134.790194196069	1237.961193441769	1072.169332529869	147.410086063505	723.436622762659	1114.495003531747	691.311639737599	707.479076819401	853.610287664077	709.217682210500	
127	36.184000000000	707.936417903431	1001.105920474576	428.251474931200	919.262115111425	1428.962409019197	284.471839491209	987.563513623878	1360.786201358732	462.155122077667	871.229881504451	1433.708188570188	616.859667693806	864.741683020134	1488.904704176937	438.199506119825	913.333967182331	936.864792499641	586.244896328047	946.616064555113	952.496411152698	313.393612277331	978.143099570717	748.504089708658	562.619167159566	906.940572350947	631.786237295042	620.846281752078	998.209395131731	589.191330700902	548.304397863189	1011.566087797448	505.276869428805	559.441283166707	941.214930444756	720.322863000675	345.271691122444	833.490679948132	624.790714387768	267.346237857723	882.105038766894	532.895174803546	341.111489428234	863.924387255407	466.791087713841	349.850644589649	828.378823013619	401.440932170950	336.721366995014	728.702954561414	303.186842753717	271.407009806147	745.811913035604	185.985393262698	348.502712026983	993.783787078439	414.390905734101	570.119804707472	931.879566607212	305.809559653190	634.180517763661	991.939759581502	214.575006748144	580.468567086176	879.543080647525	41.394212962312	555.193266361550	1047.698219908921	101.777989511737	592.558898251098	963.408027221153	36.718944426585	629.168602016790	1168.547543614196	56.714525705084	618.390783013673	592.731337741192	41.870215602682	371.343421269638	675.629344295146	36.192821606335	300.887262335620	757.339904832054	95.339880290422	337.667105752247	886.712418120741	39.096832633025	323.122510908407	983.495555947219	1097.538243490398	139.752088201938	1239.697767645396	1075.887661829121	152.198990520988	727.420404108872	1112.017225406365	696.190173433725	714.602761099148	851.038801123454	715.376236063531	
